<?xml version="1.0" encoding="UTF-8"?>
<svg id="_图层_1" data-name="图层 1" xmlns="http://www.w3.org/2000/svg" viewBox="0 0 248.18 346.92">
  <path d="M223.13,133.15c12.11,1.46,20.31,7.59,23.79,19.23,2.37,7.93,1.29,15.75-2.31,23.11-5.77,11.77-15.07,19.21-28.02,21.84-1.82,.37-3.71,.43-5.85,.66,0,1.51,.01,3.1,0,4.68-.04,3.54,.28,7.14-.22,10.62-.94,6.56-5.22,11.05-10.34,14.8-8.44,6.19-18.08,9.78-28.03,12.56-16.69,4.66-33.7,7.67-51.07,7.07-21.63-.75-42.71-4.59-62.63-13.49-6.39-2.86-12.32-6.49-16.82-12.05-2.89-3.57-4.44-7.62-4.31-12.3,.12-3.92,.02-7.85,.02-11.55-3.78-.81-7.49-1.3-11-2.4C11.45,191.25,.58,176.8,.02,161.21c-.6-16.72,13.01-29.52,29.71-28.05,6.79,.6,12.71,3,17.73,7.63,1.57,1.44,2.29,3.14,2.29,5.3-.03,20.77,.05,41.54-.08,62.3-.02,3.75,1.37,6.44,4.13,8.67,4.67,3.77,10.06,6.22,15.62,8.31,13.57,5.1,27.62,8.1,42.05,9.37,24.59,2.17,48.27-1.78,71.06-11.01,4.18-1.69,8.04-4.3,11.83-6.82,2.89-1.91,4.09-4.8,4.06-8.46-.13-20.64-.04-41.28-.09-61.92,0-2.52,.65-4.64,2.71-6.06,2.63-1.82,5.35-3.55,8.16-5.07,1.12-.6,1.61-1.07,1.58-2.38-.18-10.51,.12-21.04-.5-31.52-1.23-20.74-6.67-40.23-19.3-57.15-12.57-16.85-29.45-26.8-50.11-30.34-16.63-2.85-33.03-1.87-48.89,4.09-21.6,8.11-36.25,23.51-45.34,44.44-4.91,11.31-7.63,23.19-8.58,35.47-.36,4.62-.51,9.26-.74,13.9-.16,3.32-2.84,5.87-6.2,5.87-3.25,0-6.13-2.54-6.15-5.71-.11-24.28,4.58-47.4,17.61-68.23C57.3,20.35,78.48,6.23,105.81,1.66c22.54-3.77,44.33-1.3,64.77,9.39,20.27,10.6,34.04,27.18,42.81,48.08,4.94,11.77,8.12,24.06,8.88,36.79,.7,11.57,.6,23.19,.86,34.79,.02,.77,0,1.54,0,2.45ZM37.35,185.28c0-.96,0-1.72,0-2.48,0-9.92,0-19.83,0-29.75,0-5.07-.64-5.88-5.63-7-.5-.11-1.01-.23-1.51-.29-11.23-1.45-17.75,5.68-17.68,14.63,.07,8.25,3.92,14.64,10.15,19.71,4.15,3.38,8.89,5.33,14.67,5.18Zm173.39,.11c1.59-.15,2.89-.15,4.14-.4,10.42-2.07,19.07-11.25,20.59-21.8,1.02-7.09-2.04-13.63-7.89-16.18-5.12-2.24-10.28-1.94-15.3,.58-1.17,.59-1.58,1.36-1.57,2.71,.06,11.03,.03,22.06,.03,33.09,0,.57,0,1.13,0,2.01Z" style="fill: #fefefe;"/>
  <path d="M98.72,321.98c-5.3-5.27-10.52-10.44-15.72-15.63-5.25-5.24-10.5-10.48-15.73-15.74-3.83-3.85-3.14-8.37,1.64-10.89,11.05-5.83,22.16-11.52,34.04-15.52,7.54-2.54,15.23-4.36,23.27-3.98,6.94,.33,13.59,2.1,20.12,4.32,1.3,.44,2.1,.33,2.95-.77,4.64-5.98,6.34-5.9,13.1-3.32,12.45,4.75,23.17,12.29,33.11,21.01,8.4,7.37,14.53,16.33,18.17,26.92,2.06,6.01,3.21,12.19,3.25,18.56,.03,4.51,.02,9.03,0,13.54-.02,3.75-2.65,6.42-6.25,6.4-3.48-.02-6.07-2.71-6.12-6.34-.08-5.41,.06-10.84-.32-16.24-.89-12.87-6.43-23.62-15.78-32.37-8.29-7.75-17.59-14.07-27.91-18.87-1.51-.7-2.41-.6-3.56,.74-19.86,22.98-39.78,45.91-59.69,68.85-1.55,1.79-2.94,3.83-5.57,4.2-2.59,.36-5.17-.9-6.4-3.08-1.28-2.28-1.11-4.99,.64-7.04,3.84-4.52,7.75-8.98,11.64-13.47,.29-.34,.58-.68,1.09-1.29Zm7.03-45.42c2.77,2.73,5.36,5.23,7.9,7.8,2.82,2.85,2.96,6.53,.4,9.12-2.63,2.66-6.34,2.51-9.25-.39-3.83-3.82-7.65-7.66-11.59-11.61-3.86,1.89-7.68,3.75-11.49,5.61,8.56,8.57,16.89,16.91,25.32,25.36,10.65-12.27,21.34-24.6,32.07-36.97-11.29-4.25-22.18-3.32-33.35,1.09Z" style="fill: #fefefe;"/>
  <path d="M31.16,331.64c-.57-8.15,.85-17.21,5.49-25.43,2.32-4.11,5.31-7.88,8.34-11.52,2.5-3,6.49-2.98,9.07-.45,2.51,2.46,2.55,6.24-.11,8.99-7.33,7.59-10.6,16.7-10.43,27.17,.06,3.42,.03,6.83,0,10.25-.03,3.6-2.69,6.25-6.2,6.25-3.49,0-6.14-2.68-6.17-6.28-.02-2.58,0-5.16,0-8.97Z" style="fill: #fefefe;"/>
  <path d="M136.86,335.62c-2.4-.2-4.35-1.28-5.44-3.59-1.16-2.46-.81-4.78,.95-6.83,4.84-5.62,9.7-11.21,14.56-16.81,3.63-4.19,7.25-8.39,10.91-12.55,2.75-3.13,6.41-3.53,9.2-1.08,2.77,2.44,2.87,6.14,.16,9.27-8.35,9.66-16.74,19.28-25.09,28.94-1.39,1.6-3.04,2.54-5.26,2.66Z" style="fill: #fefefe;"/>
  <path d="M97.87,167.3c-2.81-.1-6.01-1.84-8.57-4.97-.51-.62-1.51-1.1-2.32-1.16-2.12-.16-4.25-.03-6.38-.06-3.46-.06-6.09-2.74-6.1-6.16,0-3.45,2.6-6.18,6.06-6.19,8.06-.04,16.13-.02,24.19-.01,4.91,0,7.69,3.4,6.8,8.26-1.13,6.1-6.24,10.34-13.68,10.3Z" style="fill: #fefefe;"/>
  <path d="M155.06,148.74c4.06,0,8.11-.02,12.17,0,3.72,.02,6.38,2.67,6.36,6.27-.02,3.47-2.71,6.07-6.33,6.1-.84,0-1.68,.05-2.51,0-2.99-.21-5.34,.25-7.68,2.82-3.55,3.89-8.45,4.48-13.32,2.28-4.77-2.16-7.24-6.02-7.3-11.29-.04-3.56,2.63-6.15,6.25-6.17,4.12-.03,8.24,0,12.36,0Z" style="fill: #fefefe;"/>
</svg>