<?xml version="1.0" encoding="UTF-8"?>
<svg id="_图层_1" data-name="图层 1" xmlns="http://www.w3.org/2000/svg" viewBox="0 0 470.51 471.49">
  <path d="M387.25,339.8v113.46c.93,.04,1.81,.11,2.7,.11,5.62,.01,11.23-.04,16.85,.02,5.56,.06,9.47,3.77,9.52,8.89,.04,5.13-3.82,8.94-9.32,9.17-.75,.03-1.51,0-2.26,0-131.04,0-262.08,0-393.12-.01-1.42,0-2.86-.03-4.25-.27-4.4-.77-7.61-4.82-7.36-9.15,.26-4.52,3.6-8.1,8.06-8.55,1-.1,2.01-.09,3.01-.09,23.22,0,46.45,0,69.67,0,.99,0,1.98,0,3.17,0v-113.58c-.94,0-1.83,0-2.72,0-6.2,0-12.41,.05-18.61-.02-4.96-.06-8.9-3.38-9.04-8.3-.26-9.8-.16-19.61,.02-29.41,.03-1.72,.96-3.55,1.87-5.1,6.68-11.42,13.47-22.78,20.21-34.16,.5-.84,.94-1.71,1.55-2.82-7.05-.33-13.37-2.11-19.02-5.76-11.4-7.38-17.64-17.83-18.15-31.51-.21-5.77,3.35-9.9,8.5-10.1,5.37-.21,9.27,3.66,9.55,9.46,.47,9.87,6.68,17.46,16.24,19.38,3.07,.62,6.3,.41,9.81,.59,0-1.95,0-3.52,0-5.09,0-4.95-.07-9.89,.02-14.84,.11-5.95,3.76-9.49,9.67-9.51,6.37-.02,12.74,0,19.12-.01,.82,0,1.63-.07,2.69-.12v-2.85c0-16.6-.03-33.2,.04-49.8,0-2.09-.34-2.95-2.76-3.26-23.71-2.97-43.85-22.61-47.7-46.31-.27-1.65-.46-3.32-.65-4.98-.53-4.47,1.25-8.06,4.88-9.87,3.78-1.88,7.6-1.15,10.94,2.27,5.34,5.47,11.61,9.46,19.12,10.91,5.13,.99,10.42,1.12,15.94,1.67,.08-1.5,.17-2.38,.17-3.26,.01-5.11,.06-10.23-.01-15.34-.04-2.88,.79-5.38,2.45-7.74,8.15-11.58,16.23-23.2,24.33-34.81,.52-.75,1.02-1.51,1.25-1.87-4.68-2.31-9.64-4.08-13.85-6.95-10.89-7.42-16.55-17.95-16.74-31.22C113,4.06,116.96,.12,121.9,0c4.83-.12,8.92,3.8,9.17,8.81,.61,11.98,9.21,20.33,21.29,20.6,3.69,.08,7.38,.02,11.07,.02,49.38,0,98.76,0,148.14,0,5.06,0,9.82-.95,14.02-3.94,5.54-3.94,8.56-9.28,8.81-16.12,.2-5.43,4.11-9.45,9.14-9.38,5.23,.07,8.94,4.14,8.91,9.78-.08,14.87-9.79,28.85-24.1,34.67-.77,.31-1.55,.6-2.66,1.04,.55,.84,1.01,1.58,1.5,2.29,8.34,11.95,16.67,23.92,25.06,35.84,1.81,2.57,2.73,5.27,2.67,8.43-.11,5.78-.03,11.56-.03,17.98,4.89-.26,9.65-.17,14.3-.82,8.48-1.2,15.62-5.24,21.61-11.37,3.35-3.43,6.87-4.23,10.67-2.56,3.67,1.62,5.72,4.76,5.27,9.37-2.28,23.06-14.21,39.26-35.42,48.42-4.31,1.86-9.15,2.53-13.78,3.63-1.17,.28-2.01,.38-2,1.91,.05,17.69,.04,35.38,.06,53.07,0,.23,.14,.46,.29,.94,3.55,0,7.13,0,10.71,0,3.77,0,7.55-.03,11.32,0,5.37,.06,9.18,3.84,9.23,9.19,.05,5.78,.01,11.57,.01,17.35,0,.82,0,1.64,0,2.41,14.14,2.63,25.37-6.09,26.18-20.08,.31-5.29,4.18-8.99,9.28-8.86,4.99,.13,8.73,4.16,8.77,9.45,.13,17.74-13.88,34.38-31.38,37.26-1.81,.3-3.64,.48-5.83,.76,.45,.84,.82,1.62,1.25,2.36,6.62,11.16,13.2,22.35,19.9,33.47,1.74,2.89,2.64,5.82,2.58,9.24-.16,8.3-.04,16.6-.06,24.89-.01,5.98-3.73,9.72-9.71,9.75-6.87,.03-13.73,0-20.88,0Zm-193.88,113.37h84.65c0-1.13,0-2.04,0-2.96,0-18.1,0-36.2,0-54.31,0-21.96,.11-43.91-.03-65.87-.18-28.2-26.84-47.94-53.86-39.94-18.81,5.57-30.95,23.04-30.84,42.06,.23,39.47,.07,78.94,.07,118.41v2.6Zm-27.89-295.85v55.18h140.33v-55.18H165.48Zm0,102.79v193.06h9.8v-3.43c0-38.81-.04-77.63,.05-116.44,0-4.5,.31-9.06,1.11-13.48,7.15-39.47,51.42-61.5,86.99-42.94,21.27,11.09,32.35,29.3,32.56,53.3,.35,39.9,.1,79.8,.1,119.71,0,1.07,0,2.14,0,3.31h9.7v-193.07H165.48Zm-63,79.78v77.25h44.58v-77.25h-44.58Zm266.46,77.28v-77.17h-44.71v77.17h44.71ZM92.13,125.73c7.71,8.79,17.34,13.41,28.93,13.42,76.37,.05,152.74,.03,229.11,.03,5.26,0,10.32-1.01,15.15-3.09,5.42-2.33,10.14-5.64,14.45-10.8-10.15,3.22-19.88,2.66-29.57,2.66-76.04,.01-152.07,.01-228.11,0-10.03,0-20.11,.67-29.97-2.21Zm276.89,105.07H102.39v10.91H369.02v-10.91Zm-221.88,29.31c-.71-.05-1.12-.11-1.53-.11-15.16,0-30.31-.04-45.47,.07-.97,0-2.3,.91-2.82,1.78-5.94,9.8-11.75,19.67-17.59,29.53-.37,.62-.66,1.28-1.1,2.16h68.51v-33.43Zm245.47,33.49c-.15-.46-.19-.7-.3-.9-6.18-10.45-12.33-20.91-18.63-31.29-.48-.8-2.01-1.36-3.05-1.37-14.58-.09-29.17-.06-43.75-.05-.82,0-1.64,.07-2.59,.11v33.5h68.32ZM133.86,108.9h202.78v-9.45H133.86v9.45Zm52.89-61.4c-6.68,0-12.87,.07-19.05-.05-1.65-.03-2.55,.58-3.44,1.87-6.85,9.91-13.77,19.77-20.66,29.66-.41,.59-.76,1.22-1.14,1.84,.3,.19,.43,.34,.56,.34,10.97,.02,21.93,0,32.9,.07,1.53,0,1.73-.92,2.02-2,1.33-4.83,2.68-9.65,4.02-14.48,1.56-5.62,3.12-11.23,4.79-17.26Zm97.75,0c3.07,11,6.02,21.71,9.12,32.37,.18,.63,1.59,1.26,2.44,1.27,8.55,.09,17.09,.06,25.64,.06,2.06,0,4.11,0,6.28,0-.12-.53-.1-.81-.23-.99-7.37-10.58-14.74-21.15-22.16-31.7-.33-.47-1.03-.96-1.57-.96-6.42-.07-12.85-.04-19.52-.04Zm-58.01,0c-6.68,0-13.13,.04-19.57-.03-1.57-.02-1.66,1-1.95,2.06-2.69,9.74-5.41,19.48-8.11,29.22-.19,.7-.32,1.41-.52,2.29h30.15V47.51Zm18.36,33.52h30.21c-3.14-11.3-6.23-22.37-9.3-33.39h-20.92v33.39ZM102.4,453.19h44.67v-17.67h-44.67v17.67Zm221.84,0h44.69v-17.59h-44.69v17.59Zm-177.07-141.28H71.68v9.65h75.49v-9.65Zm252.55,0h-75.48v9.65h75.48v-9.65ZM133.85,212.43h13.21v-55.03h-13.21v55.03Zm190.43-55.09v55.06h13.06v-55.06h-13.06Z" style="fill: #fcfcfc;"/>
  <path d="M451.27,471.44c-3.35,0-6.71,.12-10.05-.03-4.46-.2-7.91-3.09-8.7-7.01-.85-4.22,1.02-8.36,4.82-10.06,1.4-.63,3.06-.89,4.61-.92,6.28-.1,12.56-.08,18.84-.03,5.67,.04,9.72,3.82,9.72,8.98,0,5.13-4.05,8.96-9.7,9.07-3.18,.06-6.36,.01-9.55,.01v-.02Z" style="fill: #fcfcfc;"/>
</svg>