<svg xmlns="http://www.w3.org/2000/svg" xmlns:xlink="http://www.w3.org/1999/xlink" xml:space="preserve" version="1.1" style="shape-rendering:geometricPrecision;text-rendering:geometricPrecision;image-rendering:optimizeQuality;" viewBox="0 0 651 885" x="0px" y="0px" fill-rule="evenodd" clip-rule="evenodd"><defs><style type="text/css">
   
    .fil0 {fill:black}
   
  </style></defs><g><path class="fil0" d="M0 46c0,0 60,-46 87,-46 27,0 179,273 250,314 71,41 215,34 279,88 35,20 33,45 35,61 -34,-30 -20,-5 -43,-36 -8,-11 -3,6 -22,0 -55,-19 -156,-12 -175,-7 58,47 105,58 131,101 59,59 50,90 50,90 -39,-28 -23,-48 -65,-80 1,-7 12,-7 11,-8 -11,-2 -13,2 -14,6 0,2 -1,6 1,7 24,11 30,42 49,63 -47,-18 -54,-50 -75,-63 -60,-36 -137,-74 -137,-74 -4,28 63,217 10,246 -1,-3 -2,-6 -4,-11 -1,-1 -1,-42 -8,-66 -1,-2 0,-12 18,-15 2,0 -15,-4 -23,11 9,32 9,60 8,58 -10,-26 -24,-61 -23,-65 -57,-185 -93,-170 -112,-201 -22,-37 -3,8 -5,12 -62,11 -71,40 -107,60 -1,8 -10,15 -20,22 -14,2 -8,-21 -4,-33 -11,8 -9,48 -26,55 -5,-30 -1,-80 45,-101 79,-37 98,-113 143,-122 22,-4 5,-10 -24,4 -50,24 34,-16 -145,-193 -27,-27 -56,-53 -85,-77z"/></g></svg>