<?xml version="1.0" encoding="UTF-8"?>
<!-- Generator: Adobe Illustrator 25.2.0, SVG Export Plug-In . SVG Version: 6.00 Build 0)  -->
<svg xmlns="http://www.w3.org/2000/svg" xmlns:xlink="http://www.w3.org/1999/xlink" version="1.1" id="Layer_1" x="0px" y="0px" viewBox="0 0 432 432" style="enable-background:new 0 0 432 432;" xml:space="preserve">
<style type="text/css">
	.st0{fill:black;}
</style>
<g>
	<g>
		
			<ellipse transform="matrix(0.1132 -0.9936 0.9936 0.1132 -48.9865 252.9735)" class="st0" cx="117.23" cy="153.93" rx="31.73" ry="21.83"></ellipse>
		
			<ellipse transform="matrix(0.1132 -0.9936 0.9936 0.1132 -158.2072 330.1588)" class="st0" cx="105.86" cy="253.71" rx="53.35" ry="36.7"></ellipse>
		
			<ellipse transform="matrix(0.9693 -0.246 0.246 0.9693 -41.9593 21.4823)" class="st0" cx="65.01" cy="178.69" rx="20.81" ry="30.26"></ellipse>
		
			<ellipse transform="matrix(0.4578 -0.8891 0.8891 0.4578 -80.7658 247.0974)" class="st0" cx="162.19" cy="189.76" rx="30.26" ry="20.81"></ellipse>
		<g>
			<path d="M97.21,330.09c-16.29-1.86-30.69-13.01-39.53-30.62c-2.42-3.39-4.22-8.02-5.36-13.77c-1.87-6.48-3.02-13.33-3.43-20.36     c-4.91-26.6-10.96-47.53-15.21-60.51c-4.48-7.89-7.12-17.19-7.63-26.93c-0.83-15.59,3.77-30.13,12.62-39.89     c6.08-6.71,13.56-10.45,21.65-10.82c8.16-0.37,16.05,2.73,22.73,8.83c6.11-21.8,22.6-36.21,40.18-34.2     c17.55,2,30.37,19.71,31.45,42.29c7.85-4.39,16.21-5.61,24.01-3.43l0,0c7.8,2.18,14.25,7.51,18.66,15.41     c6.42,11.5,7.63,26.7,3.32,41.71c-0.93,3.24-2.16,6.5-3.66,9.7c-0.09,0.26-0.21,0.51-0.36,0.74c-2.21,4.55-4.91,8.72-8.03,12.41     c-7.59,12.41-18.98,32.73-30.44,59.49c-1.56,4.9-3.51,9.64-5.8,14.11c-2.92,7.35-6.32,12.49-10.4,15.69     C129.49,324.57,113.19,331.91,97.21,330.09z M64.09,133.86c-1.15-0.13-2.31-0.17-3.47-0.12c-6.3,0.29-12.21,3.29-17.09,8.67     c-7.56,8.35-11.65,21.49-10.93,35.14c0.47,8.83,2.87,17.23,6.94,24.3c0.11,0.19,0.2,0.4,0.28,0.61     c4.33,13.18,10.54,34.61,15.57,61.88c0.03,0.14,0.04,0.27,0.05,0.41c0.37,6.66,1.46,13.14,3.23,19.25     c0.03,0.09,0.05,0.19,0.07,0.29c0.97,5,2.46,8.88,4.4,11.53c0.11,0.15,0.21,0.31,0.29,0.48c7.83,15.72,20.41,25.66,34.53,27.27     c13.87,1.58,28.17-5.03,39.24-18.13c0.16-0.19,0.33-0.35,0.53-0.5c3.2-2.42,6.1-6.87,8.61-13.24c0.04-0.1,0.08-0.2,0.14-0.3     c2.18-4.23,4.03-8.74,5.51-13.39c0.03-0.1,0.07-0.2,0.11-0.3c11.71-27.35,23.36-48.11,31.07-60.7c0.09-0.15,0.19-0.29,0.31-0.42     c2.88-3.37,5.37-7.22,7.39-11.43c0.02-0.03,0.03-0.06,0.05-0.1c0.01-0.01,0.01-0.02,0.01-0.03c1.42-2.98,2.58-6.02,3.45-9.05     c3.78-13.14,2.75-26.86-2.74-36.7c-3.54-6.34-8.63-10.59-14.71-12.29l0,0c-7.54-2.11-15.9-0.05-23.53,5.8     c-1.01,0.78-2.38,0.9-3.51,0.31c-1.13-0.59-1.82-1.79-1.76-3.06c1.02-21.63-10.24-39.95-25.64-41.71     c-15.43-1.76-30.54,13.6-34.38,34.97c-0.23,1.26-1.16,2.27-2.4,2.59c-1.24,0.32-2.55-0.11-3.36-1.1     C77.12,138.42,70.74,134.62,64.09,133.86z"></path>
		</g>
	</g>
</g>
</svg>
