<?xml version="1.0" encoding="utf-8"?>

<!DOCTYPE svg PUBLIC "-//W3C//DTD SVG 1.1//EN" "http://www.w3.org/Graphics/SVG/1.1/DTD/svg11.dtd">
<!-- Uploaded to: SVG Repo, www.svgrepo.com, Generator: SVG Repo Mixer Tools -->
<svg height="800px" width="800px" version="1.1" id="_x32_" xmlns="http://www.w3.org/2000/svg" xmlns:xlink="http://www.w3.org/1999/xlink" 
	 viewBox="0 0 512 512"  xml:space="preserve">
<style type="text/css">
	.st0{fill:#000000;}
</style>
<g>
	<polygon class="st0" points="390.413,150.438 396.548,92.394 324.295,102.009 296.48,34.621 249.284,68.964 195.026,0 
		185.024,100.272 290.221,161.008 395.425,221.75 477.264,162.949 	"/>
	<path class="st0" d="M100.99,160.46c-49.997,32.316-73.392,86.654-64.346,144.136l23.868,151.708
		c3.093,19.674,14.918,36.904,32.169,46.861c17.26,9.964,38.086,11.584,56.666,4.435l143.326-55.184
		c54.294-20.906,89.651-68.344,92.65-127.803l0.715-84.399L173.732,117.641L100.99,160.46z M92.185,249.39
		c7.134-12.364,18.697-19.06,25.801-14.961c7.113,4.107,7.084,17.464-0.051,29.828c-7.142,12.364-18.689,19.06-25.801,14.954
		C85.029,275.104,85.044,261.755,92.185,249.39z M118.541,379.527c-7.141,12.372-18.688,19.061-25.794,14.961
		c-7.112-4.107-7.09-17.456,0.052-29.828c7.134-12.35,18.689-19.061,25.801-14.954C125.704,353.813,125.675,367.17,118.541,379.527z
		 M210.629,437.177c-7.142,12.364-18.689,19.06-25.801,14.954c-7.105-4.107-7.084-17.456,0.051-29.821
		c7.142-12.364,18.696-19.06,25.801-14.954C217.793,411.463,217.763,424.812,210.629,437.177z M289.572,260.362
		c7.134-12.357,18.697-19.054,25.801-14.954c7.113,4.107,7.084,17.464-0.051,29.821c-7.142,12.372-18.689,19.068-25.801,14.961
		C282.416,286.082,282.431,272.733,289.572,260.362z M286.953,361.845c7.142-12.365,18.697-19.068,25.809-14.961
		c7.105,4.1,7.076,17.456-0.066,29.821c-7.134,12.364-18.681,19.06-25.786,14.954C279.797,387.551,279.819,374.21,286.953,361.845z
		 M215.32,320.484c-7.142,12.365-18.689,19.054-25.801,14.954c-7.105-4.108-7.09-17.457,0.051-29.82
		c7.134-12.365,18.697-19.069,25.801-14.962C222.483,294.763,222.454,308.12,215.32,320.484z M180.699,193.032
		c7.134-12.365,18.682-19.061,25.801-14.954c7.105,4.1,7.076,17.457-0.058,29.821c-7.141,12.357-18.688,19.061-25.794,14.954
		C173.528,218.746,173.558,205.396,180.699,193.032z"/>
</g>
</svg>