<?xml version="1.0" encoding="UTF-8"?>
<svg enable-background="new 0 0 455.148 454.788" viewBox="0 0 455.148 454.788" xmlns="http://www.w3.org/2000/svg">
 <defs>
  <linearGradient id="d" x1="424.37" x2="455.15" gradientUnits="userSpaceOnUse">
   <stop stop-color="#e5e5e5" offset="0"/>
   <stop stop-color="#e2e2e2" offset=".1696"/>
   <stop stop-color="#d8d8d8" offset=".3059"/>
   <stop stop-color="#c7c7c7" offset=".4306"/>
   <stop stop-color="#b0b0b0" offset=".5484"/>
   <stop stop-color="#919191" offset=".6614"/>
   <stop stop-color="#6b6b6b" offset=".7707"/>
   <stop stop-color="#3e3e3e" offset=".8772"/>
   <stop stop-color="#0c0c0c" offset=".9788"/>
   <stop offset="1"/>
  </linearGradient>
  <linearGradient id="c" x1="30.852" x2=".0713" gradientUnits="userSpaceOnUse">
   <stop stop-color="#e5e5e5" offset="0"/>
   <stop stop-color="#e2e2e2" offset=".2675"/>
   <stop stop-color="#d8d8d8" offset=".4824"/>
   <stop stop-color="#c7c7c7" offset=".679"/>
   <stop stop-color="#b0b0b0" offset=".8635"/>
   <stop stop-color="#999" offset="1"/>
  </linearGradient>
  <linearGradient id="b" x2="0" y1="30.852" y2=".0718" gradientUnits="userSpaceOnUse">
   <stop stop-color="#e5e5e5" offset="0"/>
   <stop stop-color="#e2e2e2" offset=".2675"/>
   <stop stop-color="#d8d8d8" offset=".4824"/>
   <stop stop-color="#c7c7c7" offset=".679"/>
   <stop stop-color="#b0b0b0" offset=".8635"/>
   <stop stop-color="#999" offset="1"/>
  </linearGradient>
  <linearGradient id="a" x2="0" y1="423.9" y2="454.68" gradientUnits="userSpaceOnUse">
   <stop stop-color="#e5e5e5" offset="0"/>
   <stop stop-color="#e2e2e2" offset=".1696"/>
   <stop stop-color="#d8d8d8" offset=".3059"/>
   <stop stop-color="#c7c7c7" offset=".4306"/>
   <stop stop-color="#b0b0b0" offset=".5484"/>
   <stop stop-color="#919191" offset=".6614"/>
   <stop stop-color="#6b6b6b" offset=".7707"/>
   <stop stop-color="#3e3e3e" offset=".8772"/>
   <stop stop-color="#0c0c0c" offset=".9788"/>
   <stop offset="1"/>
  </linearGradient>
 </defs>
 <path d="m227.39 0h-209.39c-9.941 0-18 8.059-18 18v418.79c0 9.94 8.059 18 18 18h418.79c9.941 0 18-8.06 18-18v-418.79c0-9.941-8.059-18-18-18h-209.39z" fill="#e5e5e5" fill-rule="evenodd"/>
 <path d="m449.748,449.964-25.381-25.344c.865-.828 1.584-1.8 2.305-2.772 .576-1.08 1.367-2.088 1.836-3.168 .469-1.188.648-2.16.936-3.348 .18-1.188.289-2.521.324-3.853l-.145-369.396 .145,1.908c-.035-1.368-.145-2.7-.324-3.852-.287-1.296-.467-2.268-.936-3.348-.469-1.188-1.26-2.196-1.836-3.168-.721-1.044-1.439-1.908-2.305-2.736l25.381-25.38c.684.576 1.295,1.332 1.98,2.268 .611.792 1.295,2.016 1.908,3.276 .432,1.296 1.115,2.916 1.367,4.572 .145,1.44.145,2.952.145,4.68-.037,1.692-.037,3.816 0,5.976v402.912c.035,2.124.035,4.248 0,5.977 .035,1.656-.072,3.168-.18,4.68-.289,1.584-.865,3.168-1.332,4.608-.613,1.224-1.297,2.304-1.908,3.24-.685.9-1.296,1.656-1.98,2.268z" fill="url(#d)" fill-rule="evenodd"/>
 <path d="m5.472,449.604 25.38-25.344c-.9-.828-1.62-1.8-2.304-2.771-.684-1.08-1.476-2.089-1.836-3.168-.432-1.188-.792-2.16-.936-3.349-.252-1.188-.36-2.52-.324-3.852l.144-369.396-.144,1.908c-.036-1.368.072-2.7.324-3.852 .144-1.296.504-2.268.936-3.348 .36-1.188 1.152-2.196 1.836-3.168 .684-1.044 1.404-1.908 2.304-2.736l-25.38-25.38c-.72.576-1.332,1.332-1.98,2.268-.72.828-1.404,1.908-1.908,3.24-.54,1.368-1.188,2.952-1.368,4.608-.216,1.44-.216,2.952-.144,4.68-.036,1.692-.036,3.816 0,5.976v402.912c-.036,2.124-.036,4.248 0,5.976-.072,1.656-.072,3.168.144,4.68 .18,1.584.828,3.168 1.368,4.607 .504,1.225 1.188,2.304 1.908,3.24 .648.9 1.26,1.657 1.98,2.269z" fill="url(#c)" fill-rule="evenodd"/>
 <path d="m449.963,5.472-25.344,25.38c-.828-.9-1.799-1.62-2.771-2.304-1.08-.684-2.088-1.476-3.168-1.836-1.115-.432-2.123-.792-3.313-.936-1.223-.252-2.52-.36-3.887-.324l-369.396.144 1.908-.144c-1.368.036-2.7,0-3.852.288-1.296.144-2.268.468-3.348.972-1.188.36-2.196,1.152-3.168,1.836-1.044.684-1.908,1.404-2.736,2.304l-25.38-25.38c.576-.684 1.332-1.404 2.268-2.016 .792-.756 2.016-1.332 3.276-1.872 1.296-.54 2.916-1.188 4.572-1.368 1.44-.216 2.952-.216 4.68-.144 1.692-.036 3.816-.036 5.976,0h402.912c2.125-.036 4.248-.036 5.977,0 1.655-.072 3.167-.072 4.679.144 1.584.18 3.168.828 4.607,1.368 1.225.504 2.305,1.188 3.24,1.908 .901.648 1.657,1.26 2.268,1.98z" fill="url(#b)" fill-rule="evenodd"/>
 <path d="m449.604,449.28-25.344-25.381c-.828.828-1.801,1.656-2.771,2.341-1.08.647-2.088,1.296-3.168,1.8-1.117.396-2.125.72-3.313.972-1.225.18-2.52.288-3.889.324l-369.396-.18 1.908.18c-1.368-.036-2.7-.145-3.852-.324-1.296-.252-2.268-.576-3.348-.972-1.188-.504-2.196-1.152-3.168-1.8-1.044-.721-1.908-1.44-2.736-2.305l-25.379,25.345c.576.647 1.332,1.367 2.268,2.016 .792.612 2.016,1.296 3.276,1.908 1.296.468 2.916,1.044 4.572,1.332 1.44.144 2.952.144 4.68.144 1.692-.036 3.816-.036 5.976,0h402.912c2.123-.036 4.248-.036 5.977,0 1.654,0 3.168,0 4.68-.144 1.584-.252 3.168-.937 4.607-1.368 1.225-.648 2.305-1.224 3.24-1.872 .9-.649 1.656-1.368 2.268-2.016z" fill="url(#a)" fill-rule="evenodd"/>
 <path d="m47.848 129.74h7.956v279.36h-7.956v-279.36z" fill="#7f7f7f" fill-rule="evenodd"/>
 <path d="m229.29 50.428-194.76 60.696v27.504l194.76-60.696v-27.504z" fill="#7f7f7f" fill-rule="evenodd"/>
 <path d="m229.29 50.428 194.72 60.696v27.504l-194.72-60.696v-27.504z" fill="#7f7f7f" fill-rule="evenodd"/>
 <path d="m225.72 46-194.72 60.696v27.504l194.72-60.696v-27.504z" fill="#17057a" fill-rule="evenodd"/>
 <path d="m43.42 124.44h7.956v281.09h-7.956v-281.09z" fill="#17057a" fill-rule="evenodd"/>
 <path d="m405.22 129.74h7.955v279.36h-7.955v-279.36z" fill="#7f7f7f" fill-rule="evenodd"/>
 <path d="m400.79 124.44h7.955v281.09h-7.955v-281.09z" fill="#17057a" fill-rule="evenodd"/>
 <path d="m225.72 46 194.76 60.696v27.504l-194.76-60.696v-27.504z" fill="#17057a" fill-rule="evenodd"/>
</svg>
