<?xml version="1.0" encoding="UTF-8"?>
<svg id="_图层_1" data-name="图层 1" xmlns="http://www.w3.org/2000/svg" viewBox="0 0 458.41 458.75">
  <path d="M360.37,452.15h-14.93c-.05-.69-.13-1.37-.13-2.04,0-19,.03-38-.04-56.99,0-2.67,.77-4.86,2.42-6.9,8.47-10.51,16.86-21.08,25.35-31.57,1.18-1.46,1.61-2.73,1.09-4.65-2.05-7.71-3.9-15.47-5.81-23.22-1.24-5.05,.79-8.64,5.73-10.13,22.48-6.75,44.96-13.5,67.44-20.25,.36-.11,.71-.26,1.39-.51-1.78-2.56-3.39-5.02-5.17-7.35-.35-.45-1.38-.68-2.02-.56-17.19,3.01-34.37,6.1-51.55,9.14-19.81,3.51-39.61,7.04-59.44,10.43-1.86,.32-2.04,1.05-2.03,2.58,.05,11.93,.03,23.86,.02,35.8,0,4.74-1.94,7.32-6.53,8.39-27.05,6.29-54.1,12.53-81.16,18.79-3.35,.77-6.7,1.54-10.28,2.37,0,.91,0,1.75,0,2.58,0,14.52-.03,29.05,.02,43.57,.01,3.22-1.28,5.61-4.03,7.18-17.27,9.89-34.54,19.75-51.82,29.62-.19,.11-.41,.17-.82,.33-2.45-4.28-4.89-8.54-7.45-12.99,.85-.51,1.63-1,2.43-1.46,14.9-8.51,29.8-17.04,44.73-25.5,1.4-.79,1.91-1.66,1.9-3.28-.07-15.07-.04-30.14-.04-45.22,0-4.86,1.99-7.41,6.7-8.5,29.73-6.89,59.46-13.77,89.19-20.66,.67-.16,1.33-.37,2.08-.58,0-4.03,0-7.95,0-11.87,0-8.95,0-17.9,.01-26.85,0-4.1,2.45-7.1,6.4-7.8,24.13-4.26,48.26-8.5,72.39-12.76,13.57-2.39,27.13-4.82,41.31-7.33-21.5-31.06-42.82-61.87-64.31-92.9-4,4.02-7.81,7.85-11.63,11.67-4.58,4.57-8.4,4.57-12.95,.01-5.32-5.33-10.63-10.66-16.05-16.1-.74,.69-1.38,1.25-1.97,1.85-7.27,7.27-14.54,14.55-21.8,21.83-4.53,4.54-8.37,4.54-12.96-.04-6.83-6.82-13.65-13.66-20.74-20.75-21.55,29.62-43.02,59.13-64.62,88.83-4.13-3-8.1-5.88-12.28-8.91,25.51-35.08,50.94-70.07,76.5-105.22-12.2-16.25-24.38-32.48-36.74-48.95-4.3,4.32-8.35,8.58-12.64,12.59-1.35,1.26-3.22,2.24-5.02,2.69-2.41,.61-4.61-.41-6.37-2.22-2.79-2.86-5.6-5.71-8.55-8.71-.56,.63-.98,1.04-1.33,1.51-5.14,6.84-10.26,13.69-15.39,20.52-4.04,5.38-9.81,5.35-13.86-.06-4.8-6.4-9.59-12.81-14.39-19.21-.42-.56-.89-1.08-1.5-1.82-3.71,4.62-7.33,9.11-10.94,13.62-4.02,5.02-8.02,10.06-12.04,15.08-4.19,5.23-8.59,5.5-13.3,.8-6.11-6.1-12.22-12.2-18.31-18.33-.6-.6-1.03-1.38-1.7-2.3-27.06,37.37-53.73,74.2-80.54,111.22-4.13-2.99-8.11-5.87-12.29-8.9,35.88-49.56,71.7-99.01,107.63-148.63-6.04-7.56-12.06-15.08-18.3-22.89C63.63,85.29,38.07,120.17,12.29,155.32c-4.09-2.99-8.1-5.93-12.25-8.96,4.19-5.73,8.3-11.35,12.42-16.97,23.19-31.63,46.39-63.25,69.59-94.88,4.24-5.79,9.42-5.9,13.89-.31,6.47,8.09,12.94,16.18,19.41,24.27,.43,.54,.91,1.04,1.55,1.78,1.2-1.62,2.32-3.09,3.4-4.59,12.37-17.09,24.74-34.19,37.11-51.28,4.21-5.82,9.69-5.84,14.02-.07,33.75,45,67.5,90,101.26,135,.46,.61,.94,1.21,1.57,2.03,3.83-5.24,7.52-10.28,11.19-15.33,6.97-9.58,13.95-19.14,20.84-28.78,.75-1.05,1.26-2.54,1.26-3.82,.08-20.72,.06-41.45,.06-62.17,0-5.69,2.83-8.53,8.5-8.53,14.44,0,28.89,0,43.33,0,4.02,0,6.71,1.55,7.91,4.69,1.3,3.39,.36,6.27-2.19,8.76-3.36,3.29-6.68,6.62-10.15,10.06,3.69,5.52,7.33,10.89,10.86,16.33,.87,1.35,1.71,2.91,1.93,4.46,.65,4.68-2.8,8.42-7.56,8.44-11.15,.03-22.29,0-33.44,0-1.25,0-2.5,0-3.93,0-.07,.68-.17,1.27-.18,1.86-.02,2.75,.28,5.53-.06,8.24-.88,7.03,1.62,12.6,5.63,18.36,42.68,61.27,85.11,122.71,127.65,184.08,1.68,2.43,2.73,4.87,2.46,7.86-.14,1.56-.02,3.14-.02,4.71-.02,4.8-1.7,7.12-6.41,8.55-8.75,2.67-17.52,5.3-26.28,7.93-13.18,3.96-26.37,7.9-39.56,11.85-.44,.13-.85,.35-1.48,.62,1.25,5.04,2.49,10.03,3.73,15.03,.57,2.28,1.05,4.58,1.73,6.82,1,3.31,.2,6.08-1.94,8.73-8.88,10.99-17.71,22.03-26.47,33.12-.74,.94-1.23,2.36-1.24,3.56-.08,17.58-.06,35.17-.06,52.75,0,.84,0,1.68,0,2.63ZM101.54,107.43c5.64,5.72,11.2,11.36,16.84,17.08,.63-.71,.95-1.04,1.24-1.41,7.79-9.74,15.54-19.51,23.37-29.21,3.83-4.74,9.2-4.62,12.9,.2,2.05,2.67,4.04,5.4,6.06,8.1,3.27,4.36,6.55,8.72,9.96,13.26,.69-.85,1.2-1.42,1.66-2.03,4.71-6.27,9.42-12.54,14.13-18.81,3.9-5.2,8.51-5.61,13.06-1.06,2.93,2.92,5.76,5.93,8.52,8.78,3.34-3.35,6.37-6.38,9.53-9.55-17.96-23.95-36.04-48.04-54.27-72.36-21.21,29.29-42.17,58.24-63,87.01Zm191.28,77.68c7.95-7.97,15.91-15.97,23.9-23.95,3.89-3.88,8.03-3.9,11.93-.03,4.96,4.91,9.88,9.87,14.82,14.8,.59,.59,1.21,1.15,1.51,1.44,3.2-3.21,6.22-6.24,9.36-9.4-12.97-18.73-26.1-37.69-39.34-56.81-13.65,18.77-27.11,37.27-40.44,55.61,6.1,6.13,12.07,12.12,18.26,18.34Zm29.97-124.91h23.33c-2.38-3.57-4.62-6.86-6.78-10.19-2.49-3.84-2.15-7.13,.97-10.42,.46-.48,.9-.99,1.55-1.71h-19.06v22.31Z" style="fill: #fdfdfd;"/>
  <path d="M94.34,235.41c-3.84,3.86-7.31,7.35-11.01,11.07-7.93-7.95-16-16.04-24.41-24.48,0,2.32,0,4.24,0,6.16,0,5.18-.08,10.36,.06,15.54,.03,1.1,.58,2.44,1.34,3.22,8.15,8.28,16.38,16.48,24.61,24.68,.61,.61,1.37,1.06,1.88,1.45-3.8,3.78-7.28,7.24-10.78,10.73-5.29-5.32-10.84-10.92-16.9-17.02-.11,1.46-.21,2.1-.21,2.75-.01,6.44-.08,12.88,.06,19.31,.02,1.16,.62,2.59,1.44,3.41,10.65,10.78,21.38,21.48,32.11,32.17,.6,.6,1.41,.99,1.97,1.38-3.92,3.9-7.4,7.37-10.99,10.95-7.88-7.93-15.93-16.03-24.39-24.53-.1,1.26-.19,1.91-.19,2.56-.01,6.36,.05,12.72-.04,19.07-.02,1.64,.51,2.74,1.66,3.88,8.76,8.66,17.45,17.39,25.94,25.88-3.58,3.59-7.09,7.11-10.92,10.94-5.27-5.29-10.82-10.88-16.64-16.72,0,5.28-.05,10.27,.06,15.26,.02,.7,.78,1.47,1.36,2.05,10.69,10.73,21.41,21.44,32.13,32.14,.61,.61,1.37,1.06,1.88,1.46-3.8,3.78-7.28,7.24-10.73,10.67-7.8-7.83-15.86-15.92-23.93-24.01-.21,.11-.42,.23-.63,.34v56.39h-15.13v-56.31c-8.2,8.21-16.29,16.32-24.26,24.29-3.98-3.97-7.45-7.45-11.05-11.04,.44-.46,1-1.08,1.6-1.68,10.66-10.66,21.29-21.34,32-31.94,1.23-1.22,1.7-2.42,1.66-4.11-.11-4.39-.04-8.78-.04-13.05-5.55,5.56-11.1,11.13-16.49,16.52-3.99-4.01-7.49-7.54-11.11-11.18,6.5-6.49,13.29-13.24,20.05-20.01,2.49-2.5,5.9-4.63,7.15-7.66,1.26-3.02,.36-6.94,.38-10.47,.02-4.2,0-8.4,0-12.94-8.38,8.39-16.46,16.47-24.4,24.41-3.73-3.71-7.21-7.18-10.83-10.79,.42-.44,.98-1.07,1.57-1.66,10.71-10.72,21.45-21.4,32.09-32.19,.86-.87,1.47-2.39,1.5-3.63,.14-6.98,.07-13.96,.07-20.77-5.5,5.52-11.05,11.08-16.37,16.42-4.04-4.03-7.55-7.54-11.18-11.17,4.24-4.24,8.79-8.78,13.34-13.32,4.33-4.33,8.69-8.63,12.96-13.02,.63-.65,1.18-1.71,1.2-2.59,.1-6.99,.06-13.97,.05-20.96,0-.28-.06-.56-.1-.99-8.22,8.23-16.29,16.31-24.23,24.25-3.75-3.76-7.22-7.25-10.82-10.86,.3-.33,.79-.91,1.33-1.44,11.71-11.72,23.42-23.43,35.13-35.14,4.23-4.23,8.2-4.25,12.44-.02,11.83,11.81,23.65,23.64,35.48,35.46,.39,.39,.9,.64,1.25,.88Z" style="fill: #fff;"/>
  <path d="M110.17,412.58c-4.07-4.08-7.55-7.56-11.14-11.15,6.03-6.02,12.19-12.17,18.35-18.32,2.72-2.72,5.48-5.4,8.13-8.18,.59-.62,1.18-1.56,1.19-2.36,.09-7.14,.05-14.28,.04-21.43,0-.2-.11-.41-.19-.67-8.13,8.14-16.2,16.22-24.14,24.17-3.74-3.75-7.21-7.23-10.82-10.85,.36-.39,.92-1.01,1.51-1.6,10.71-10.71,21.41-21.44,32.15-32.11,1.08-1.08,1.56-2.14,1.55-3.68-.08-6.98-.03-13.96-.03-20.97-5.63,5.64-11.21,11.23-16.68,16.7-3.98-3.98-7.46-7.45-11.05-11.03,.47-.49,1.05-1.12,1.64-1.72,8.21-8.22,16.45-16.4,24.59-24.69,.81-.83,1.4-2.26,1.42-3.42,.13-7.04,.06-14.08,.06-21.21-8.2,8.21-16.26,16.29-24.12,24.16-3.84-3.84-7.3-7.31-10.93-10.94,.17-.19,.65-.78,1.18-1.31,11.71-11.72,23.41-23.43,35.13-35.13,4.32-4.32,8.24-4.32,12.61,.04,11.72,11.7,23.43,23.42,35.13,35.13,.49,.49,.95,1.02,1.27,1.37-3.55,3.56-7.01,7.04-10.55,10.59-7.89-7.95-15.95-16.05-24.44-24.6-.1,1.33-.2,1.98-.2,2.62-.01,6.44-.08,12.87,.06,19.31,.02,1.16,.62,2.58,1.44,3.41,8.14,8.29,16.38,16.47,24.59,24.69,.6,.6,1.17,1.22,1.59,1.67-3.59,3.59-7.06,7.07-10.78,10.8-5.42-5.46-10.97-11.05-16.91-17.03v5.56c0,5.34,.06,10.68-.04,16.01-.03,1.55,.49,2.6,1.57,3.68,10.8,10.73,21.55,21.51,32.33,32.27,.5,.5,1.08,.91,1.39,1.17-3.66,3.66-7.13,7.12-10.82,10.8-7.69-7.81-15.74-15.97-23.78-24.14-.21,.12-.43,.24-.64,.36,0,4.9,.43,9.85-.11,14.7-.69,6.19,1.47,10.5,6.05,14.63,7.63,6.87,14.65,14.4,21.78,21.51-3.61,3.59-7.09,7.05-10.6,10.54-5.3-5.34-10.85-10.94-16.4-16.54-.2,.11-.41,.22-.61,.33v56.41h-15.12v-56.23c-5.6,5.62-11.15,11.19-16.64,16.69Z" style="fill: #fcfcfc;"/>
  <path d="M455.88,371.33c-3.55,3.53-7.04,7-10.62,10.57-5.35-5.38-10.91-10.97-16.88-16.98-.08,1.3-.16,1.95-.16,2.61,0,6.2,.06,12.4-.05,18.6-.03,1.87,.48,3.18,1.83,4.52,8.72,8.58,17.35,17.26,25.8,25.7-3.61,3.6-7.12,7.12-10.71,10.71-5.24-5.29-10.76-10.86-16.72-16.87v41.91h-15.13v-41.34c-5.76,5.77-11.34,11.37-16.8,16.85-3.95-3.97-7.42-7.46-11.17-11.23,1.35-1.25,2.88-2.59,4.32-4.02,7.4-7.37,14.8-14.73,22.1-22.18,.81-.83,1.38-2.26,1.4-3.43,.13-7.03,.06-14.07,.06-21.33-5.78,5.8-11.33,11.38-16.76,16.83-3.81-3.82-7.28-7.3-10.87-10.9,.27-.3,.7-.82,1.18-1.31,9.26-9.27,18.53-18.54,27.8-27.81,4.14-4.14,8.18-4.18,12.27-.09,9.28,9.26,18.54,18.53,27.81,27.8,.49,.49,.96,1.02,1.3,1.39Z" style="fill: #fefefe;"/>
</svg>