<?xml version="1.0" encoding="UTF-8"?>
<svg id="_图层_1" data-name="图层 1" xmlns="http://www.w3.org/2000/svg" viewBox="0 0 295.55 347.95">
  <path d="M55.08,169.31c-2.14-.11-4.21-.06-6.23-.36-6.01-.91-10.41-4.23-13.44-9.42-3.14-5.38-4.58-11.33-5.23-17.42-.6-5.56-.89-11.17-.94-16.76-.08-9.37,7.49-17,16.86-17.26,2.94-.08,5.88-.01,9.16-.01,0-.96-.01-1.73,0-2.51,.14-7.37-.13-14.77,.51-22.1,1.8-20.49,9.94-38.32,23.8-53.47,13.49-14.73,30.03-24.55,49.69-28.13,36.57-6.66,67.02,4.57,90.86,33.05,10.43,12.45,16.76,27.05,18.99,43.11,1.13,8.13,.84,16.46,1.17,24.7,.07,1.68,0,3.36,0,5.33,2.68,0,5.17,.11,7.64-.02,10.66-.55,18.82,8.5,18.48,18.46-.31,9.15-.65,18.27-3.61,27.03-2.39,7.08-6.28,12.92-14.01,14.93-2.66,.69-5.5,.7-8.5,1.05,0,.7-.04,1.49,0,2.28,.66,12.2-2.99,23.25-9.07,33.61-9.08,15.48-21.53,27.8-36.15,37.98-2.55,1.78-3.75,3.45-2.77,6.44,.2,.62,.15,1.32,.3,1.96,1.11,4.94,2.36,5.93,7.37,5.94,3.76,0,7.52,.05,11.28,.02,.59,0,1.45-.18,1.72-.58,3.53-5.35,8.72-6.52,14.54-5.6,3.46,.55,6.93,1.4,10.21,2.61,4.08,1.5,6.85,4.52,7.87,8.88,.29,1.25,.93,1.64,2.18,1.91,3.22,.69,6.49,1.4,9.54,2.61,5.3,2.1,8.89,5.88,10.13,11.66,.2,.92,.87,1.85,1.56,2.53,12.41,11.99,20.8,26.3,24.41,43.19,1.22,5.72,1.6,11.65,2.06,17.5,.3,3.83-1.57,5.49-5.46,5.49-51.85,0-103.7,0-155.55,0-42.78,0-85.56,0-128.33,0-4.82,0-6.22-1.4-6.18-6.15,.35-38.66,28.46-73.27,66.41-81.87,9.51-2.15,19.13-2.29,28.79-2.2,5.54,.05,6.91-1.42,8-6.85,.75-3.74-.25-5.82-3.46-8.07-14.96-10.48-27.59-23.25-36.52-39.38-5.37-9.71-8.52-20.01-7.95-31.24,.04-.74,0-1.47-.02-2.21,0-.14-.07-.28-.16-.66Zm176.08-36.61c0-12.98,.2-25.96-.09-38.94-.14-6.45-.59-13-1.94-19.28-7.37-34.24-36.07-61.1-72.72-65.01-15.34-1.63-30.24,.61-44.03,7.56-29.71,14.96-46.47,39.11-47.68,72.5-.99,27.4-.07,54.86-.37,82.29-.13,11.41,2.98,21.66,9.01,31.1,12.69,19.88,30.11,34.35,51.52,44,11.71,5.28,23.87,7.48,36.48,3.34,26.63-8.75,47.07-25.41,61.88-49.03,5.63-8.98,8.28-18.85,8.01-29.6-.32-12.97-.08-25.96-.08-38.94ZM9.29,338.75c12.15,0,24.01,.01,35.87-.06,.43,0,1.14-.76,1.25-1.27,.41-1.94,.55-3.93,.94-5.88,1.49-7.6,4.43-14.62,8.73-21.05,1.54-2.31,3.93-2.94,6.13-1.71,2.19,1.22,2.95,3.73,1.85,6.1-.25,.55-.53,1.08-.88,1.8,17.7,.24,34.85-1.57,51.7-5.91,20.98-5.4,40.38-14.13,57.27-27.93,5.97-4.87,11.29-10.35,15.21-17.08,.9-1.54,1.07-2.61-.2-4.24-1.4-1.8-2.17-4.13-3.04-6.29-.53-1.31-.72-2.76-1.16-4.56-23.53,14.3-46.98,14.17-70.44,0-.28,1.38-.45,2.24-.62,3.11-1.5,7.45-5.61,11.84-12.32,12.96-1.51,.25-3.08,.2-4.63,.19-8.18-.03-16.38-.3-24.44,1.48-23.09,5.1-40.51,17.93-52.08,38.57-5.47,9.76-8.37,20.32-9.14,31.77Zm236.84-65.13c-1.64,6.79-3.04,12.87-4.58,18.91-.66,2.58-3.08,4.02-5.35,3.48-2.57-.61-3.99-2.77-3.46-5.52,.43-2.23,1.14-4.41,1.6-6.64,.95-4.6,1.96-9.2,2.69-13.84,.82-5.22-.6-7.16-5.69-8.39-1.64-.4-3.3-.7-4.97-.99-4.39-.75-5.64,.09-6.87,4.36-6.54,22.58-16.99,43.2-31.08,61.99-2.94,3.92-6.14,7.65-9.37,11.64,.6,.06,1.01,.13,1.42,.13,13.79,0,27.57,.03,41.36-.05,.85,0,2.09-.6,2.48-1.3,2.07-3.62,4.02-7.32,5.84-11.08,1.28-2.64,3.56-3.89,6.05-2.98,2.34,.86,3.46,3.35,2.61,6.03-.44,1.4-1.02,2.76-1.62,4.1-.75,1.7-1.58,3.36-2.48,5.27,2.92,0,5.5,0,8.07,0q5.93,0,8.16-5.63c4.21-10.54,6.53-21.54,7.4-32.79,.48-6.22,.22-12.5,.17-18.75-.02-2.14-1.22-3.96-3.11-4.77-2.99-1.28-6.16-2.15-9.25-3.19ZM55.14,338.76c2.32,0,3.86,.03,5.39,0,12.81-.29,25.68,0,38.43-1.05,17.62-1.46,34-7.46,49.15-16.53,5.41-3.24,10.4-7.2,15.53-10.91,1.71-1.24,3.42-1.73,5.34-.74,1.74,.9,2.77,2.48,2.32,4.35-.33,1.39-1.2,2.88-2.28,3.81-9.79,8.44-20.88,14.77-32.77,19.77-.66,.28-1.28,.63-1.92,.95,9.95,.35,19.75,.31,29.55,.38,1.52,0,2.59-.41,3.67-1.51,15.34-15.68,26.89-33.87,35.57-53.92,2.3-5.3,4.25-10.75,6.48-16.42-4.17,0-7.85-.05-11.53,.05-.55,.01-1.35,.55-1.6,1.06-3.78,7.78-9.42,14.1-15.89,19.63-26.58,22.73-58.04,33.58-92.3,37.14-9.42,.98-18.98,.74-28.47,1.12-.57,.02-1.51,.48-1.63,.91-1.06,3.8-1.97,7.64-3.04,11.91Zm231.18-.13c-1.28-16.74-7.21-31.34-18.34-44.58-.73,15.72-3.45,30.39-9.36,44.58h27.7ZM55.17,117.19c-3.09,0-5.96-.13-8.81,.03-4.79,.26-8,3.71-7.94,8.55,.06,4.34,.13,8.7,.55,13.01,.52,5.34,1.43,10.65,4.07,15.45,2.66,4.83,6.4,6.52,12.07,5.5v-28.53c-3.19-.24-3.44,.02-3.22,3.07,.05,.66,.15,1.33,.08,1.98-.27,2.52-2.13,4.18-4.58,4.17-2.47-.01-4.28-1.66-4.46-4.23-.12-1.75-.19-3.54-.01-5.28,.45-4.46,3.46-7.73,7.87-8.66,1.41-.3,2.87-.39,4.39-.59v-4.47Zm185.23,4.7c.96,0,1.7-.04,2.43,0,4.95,.35,8.81,3.35,9.65,7.94,.42,2.28,.29,4.7,.08,7.03-.18,2.05-2.1,3.47-4.19,3.55-3.21,.12-5.02-2.16-4.72-5.95,.27-3.4-.13-3.77-3.18-3.06v28.43c4.05,.52,7.77,.21,10.34-3.19,1.31-1.73,2.45-3.71,3.18-5.75,3.08-8.61,3.36-17.6,3.1-26.61-.09-3.12-2.94-6.43-6.08-6.78-3.47-.39-7.02-.09-10.61-.09v4.47Z" style="fill: #fefefe;"/>
  <path d="M150.11,210.66c-13.61-.24-24.31-2.67-33.96-8.84-1.82-1.16-3-2.68-2.65-4.92,.53-3.4,4.09-5,7.11-3.06,6,3.84,12.54,6.14,19.55,7.01,12.01,1.5,23.48-.12,33.97-6.56,1.59-.98,3.16-1.65,4.97-1.01,1.74,.61,2.78,1.96,2.98,3.78,.22,1.93-.67,3.4-2.26,4.47-5.31,3.57-11.14,6.03-17.37,7.32-4.81,.99-9.73,1.43-12.35,1.8Z" style="fill: #fefefe;"/>
  <path d="M77.6,102.82c.99-1.61,1.49-2.95,2.42-3.87,11.33-11.33,30.89-11.38,42.35-.17,2.3,2.25,2.6,4.78,.79,6.82-1.89,2.14-4.49,2.1-7-.1-7.8-6.83-18.04-7.9-26.3-2.67-1.48,.94-2.75,2.2-4.16,3.27-1.52,1.16-3.33,1.67-4.92,.52-1.24-.9-2.05-2.39-3.19-3.8Z" style="fill: #fefefe;"/>
  <path d="M196.92,90.41c5.54,.11,12.58,2.82,18.48,8.35,2.32,2.18,2.58,5.05,.69,7.01-1.89,1.96-4.48,1.87-6.88-.24-9.09-8.01-20.66-8.03-29.79-.03-2.51,2.2-5.1,2.24-7,.11-1.8-2.01-1.51-4.57,.77-6.82,5.38-5.29,13.22-8.39,23.73-8.38Z" style="fill: #fdfdfd;"/>
  <path d="M160.23,131.51c0,6.42,.01,12.83,0,19.25-.01,3.3-1.8,5.39-4.52,5.39-2.71,0-4.57-2.09-4.58-5.4-.04-12.91-.04-25.81,0-38.72,0-2.95,1.46-4.8,3.82-5.2,2-.35,4.1,.71,4.86,2.64,.34,.85,.41,1.86,.42,2.8,.03,6.42,.02,12.83,.02,19.25Z" style="fill: #fcfcfc;"/>
  <path d="M194.33,112.53c5.74,0,10.4,4.71,10.31,10.42-.09,5.64-4.75,10.25-10.34,10.24-5.72,0-10.29-4.69-10.25-10.49,.04-5.69,4.57-10.18,10.27-10.17Z" style="fill: #fcfcfc;"/>
  <path d="M111.51,122.86c0,5.66-4.54,10.28-10.18,10.34-5.67,.06-10.42-4.69-10.39-10.4,.02-5.66,4.58-10.24,10.23-10.26,5.82-.03,10.33,4.48,10.34,10.32Z" style="fill: #fbfbfb;"/>
  <path d="M147.79,177.18c-5.78,.02-10.79-1.96-15.05-5.84-2.34-2.13-2.67-4.74-.89-6.81,1.78-2.07,4.46-2.12,6.85-.13,5.97,4.95,12.2,4.95,18.18,0,2.39-1.98,5.08-1.93,6.86,.14,1.78,2.07,1.44,4.68-.88,6.81-4.17,3.83-9.28,5.81-15.06,5.83Z" style="fill: #fcfcfc;"/>
  <path d="M147.72,216.13c4.46,.18,8.75,1.01,12.62,3.37,2.82,1.72,3.66,4.25,2.21,6.66-1.37,2.29-3.99,2.78-6.72,1.31-5.31-2.87-10.66-2.89-15.99-.06-2.87,1.53-5.52,1.04-6.89-1.34-1.38-2.4-.49-4.9,2.36-6.62,3.81-2.31,8.03-3.13,12.41-3.33Z" style="fill: #fefefe;"/>
  <path d="M177.89,166.15c-.05,3.73-1.24,6.75-3.54,9.3-1.85,2.06-4.55,2.35-6.5,.77-2.04-1.65-2.28-4.15-.64-6.47,1.99-2.8,1.99-3.97,.02-6.7-1.63-2.27-1.42-4.89,.54-6.5,1.99-1.64,4.54-1.4,6.49,.68,2.42,2.58,3.56,5.68,3.62,8.92Z" style="fill: #fdfdfd;"/>
  <path d="M117.69,166.15c.06-3.46,1.31-6.59,3.85-9.16,1.89-1.91,4.44-2.01,6.34-.35,1.79,1.56,2.05,4.08,.64,6.17-2.22,3.29-2.21,3.77,.06,7.22,1.38,2.09,1.06,4.59-.79,6.14-1.78,1.5-4.47,1.41-6.2-.34-2.59-2.62-3.89-5.82-3.9-9.68Z" style="fill: #fdfdfd;"/>
  <path d="M147.66,89.06c-3.99-.03-7.3-3.33-7.33-7.33-.03-4.08,3.34-7.44,7.47-7.43,4.12,0,7.51,3.4,7.45,7.46-.06,4.09-3.43,7.33-7.59,7.3Z" style="fill: #fefefe;"/>
  <path d="M147.67,285.35c-4.07-.11-7.87-1.44-11.02-4.42-2.11-2-2.34-4.76-.59-6.68,1.73-1.91,4.29-2.01,6.54-.24,3.8,2.99,6.57,2.98,10.52-.05,2.25-1.73,4.84-1.58,6.53,.36,1.63,1.87,1.43,4.65-.55,6.54-3.13,2.99-6.92,4.38-11.42,4.51Z" style="fill: #fefefe;"/>
</svg>