<?xml version="1.0" encoding="UTF-8"?>
<!-- Generator: Adobe Illustrator 25.2.0, SVG Export Plug-In . SVG Version: 6.00 Build 0)  -->
<svg xmlns="http://www.w3.org/2000/svg" xmlns:xlink="http://www.w3.org/1999/xlink" version="1.1" id="Layer_1" x="0px" y="0px" viewBox="0 0 432 432" style="enable-background:new 0 0 432 432;" xml:space="preserve">
<style type="text/css">
	.st0{fill:#EE7EB2;}
	.st1{fill:#010101;}
	.st2{fill:none;}
	.st3{fill:#FEFEFE;}
	.st4{fill:#9A9A9A;}
	.st5{fill:#F398BA;}
	.st6{fill:#FFFFFF;}
</style>
<g>
	<g>
		
			<ellipse transform="matrix(0.1132 -0.9936 0.9936 0.1132 -48.9865 252.9735)" class="st0" cx="117.23" cy="153.93" rx="31.73" ry="21.83"></ellipse>
		
			<ellipse transform="matrix(0.1132 -0.9936 0.9936 0.1132 -158.2072 330.1588)" class="st0" cx="105.86" cy="253.71" rx="53.35" ry="36.7"></ellipse>
		
			<ellipse transform="matrix(0.9693 -0.246 0.246 0.9693 -41.9593 21.4823)" class="st0" cx="65.01" cy="178.69" rx="20.81" ry="30.26"></ellipse>
		
			<ellipse transform="matrix(0.4578 -0.8891 0.8891 0.4578 -80.7658 247.0974)" class="st0" cx="162.19" cy="189.76" rx="30.26" ry="20.81"></ellipse>
		<g>
			<path d="M97.21,330.09c-16.29-1.86-30.69-13.01-39.53-30.62c-2.42-3.39-4.22-8.02-5.36-13.77c-1.87-6.48-3.02-13.33-3.43-20.36     c-4.91-26.6-10.96-47.53-15.21-60.51c-4.48-7.89-7.12-17.19-7.63-26.93c-0.83-15.59,3.77-30.13,12.62-39.89     c6.08-6.71,13.56-10.45,21.65-10.82c8.16-0.37,16.05,2.73,22.73,8.83c6.11-21.8,22.6-36.21,40.18-34.2     c17.55,2,30.37,19.71,31.45,42.29c7.85-4.39,16.21-5.61,24.01-3.43l0,0c7.8,2.18,14.25,7.51,18.66,15.41     c6.42,11.5,7.63,26.7,3.32,41.71c-0.93,3.24-2.16,6.5-3.66,9.7c-0.09,0.26-0.21,0.51-0.36,0.74c-2.21,4.55-4.91,8.72-8.03,12.41     c-7.59,12.41-18.98,32.73-30.44,59.49c-1.56,4.9-3.51,9.64-5.8,14.11c-2.92,7.35-6.32,12.49-10.4,15.69     C129.49,324.57,113.19,331.91,97.21,330.09z M64.09,133.86c-1.15-0.13-2.31-0.17-3.47-0.12c-6.3,0.29-12.21,3.29-17.09,8.67     c-7.56,8.35-11.65,21.49-10.93,35.14c0.47,8.83,2.87,17.23,6.94,24.3c0.11,0.19,0.2,0.4,0.28,0.61     c4.33,13.18,10.54,34.61,15.57,61.88c0.03,0.14,0.04,0.27,0.05,0.41c0.37,6.66,1.46,13.14,3.23,19.25     c0.03,0.09,0.05,0.19,0.07,0.29c0.97,5,2.46,8.88,4.4,11.53c0.11,0.15,0.21,0.31,0.29,0.48c7.83,15.72,20.41,25.66,34.53,27.27     c13.87,1.58,28.17-5.03,39.24-18.13c0.16-0.19,0.33-0.35,0.53-0.5c3.2-2.42,6.1-6.87,8.61-13.24c0.04-0.1,0.08-0.2,0.14-0.3     c2.18-4.23,4.03-8.74,5.51-13.39c0.03-0.1,0.07-0.2,0.11-0.3c11.71-27.35,23.36-48.11,31.07-60.7c0.09-0.15,0.19-0.29,0.31-0.42     c2.88-3.37,5.37-7.22,7.39-11.43c0.02-0.03,0.03-0.06,0.05-0.1c0.01-0.01,0.01-0.02,0.01-0.03c1.42-2.98,2.58-6.02,3.45-9.05     c3.78-13.14,2.75-26.86-2.74-36.7c-3.54-6.34-8.63-10.59-14.71-12.29l0,0c-7.54-2.11-15.9-0.05-23.53,5.8     c-1.01,0.78-2.38,0.9-3.51,0.31c-1.13-0.59-1.82-1.79-1.76-3.06c1.02-21.63-10.24-39.95-25.64-41.71     c-15.43-1.76-30.54,13.6-34.38,34.97c-0.23,1.26-1.16,2.27-2.4,2.59c-1.24,0.32-2.55-0.11-3.36-1.1     C77.12,138.42,70.74,134.62,64.09,133.86z"></path>
		</g>
	</g>
	<g>
		
			<ellipse transform="matrix(0.9936 -0.1132 0.1132 0.9936 -15.4039 36.6287)" class="st0" cx="314.77" cy="153.93" rx="21.83" ry="31.73"></ellipse>
		
			<ellipse transform="matrix(0.9936 -0.1132 0.1132 0.9936 -26.6279 38.5576)" class="st0" cx="326.14" cy="253.71" rx="36.7" ry="53.35"></ellipse>
		
			<ellipse transform="matrix(0.246 -0.9693 0.9693 0.246 103.5181 490.4475)" class="st0" cx="366.99" cy="178.69" rx="30.26" ry="20.81"></ellipse>
		
			<ellipse transform="matrix(0.8891 -0.4578 0.4578 0.8891 -56.9375 144.5574)" class="st0" cx="269.81" cy="189.76" rx="20.81" ry="30.26"></ellipse>
		<g>
			<path d="M290.03,309.94c-4.08-3.2-7.48-8.34-10.4-15.69c-2.29-4.47-4.24-9.21-5.8-14.11c-11.46-26.76-22.85-47.09-30.44-59.49     c-3.12-3.69-5.82-7.86-8.03-12.41c-0.15-0.23-0.27-0.48-0.36-0.74c-1.5-3.19-2.73-6.45-3.66-9.7c-4.31-15-3.1-30.2,3.32-41.71     c4.41-7.9,10.86-13.23,18.66-15.41l0,0c7.81-2.18,16.16-0.96,24.01,3.43c1.08-22.58,13.9-40.29,31.45-42.29     c17.58-2,34.06,12.4,40.18,34.2c6.68-6.1,14.57-9.2,22.73-8.83c8.09,0.37,15.57,4.11,21.65,10.82     c8.85,9.76,13.44,24.3,12.62,39.89c-0.52,9.73-3.15,19.04-7.63,26.93c-4.25,12.98-10.3,33.91-15.21,60.51     c-0.4,7.03-1.56,13.88-3.43,20.36c-1.14,5.76-2.94,10.39-5.36,13.77c-8.85,17.61-23.24,28.76-39.53,30.62     C318.81,331.91,302.51,324.57,290.03,309.94z M349.67,144.8c-0.81,0.99-2.12,1.42-3.36,1.1c-1.24-0.32-2.18-1.33-2.4-2.59     c-3.85-21.37-18.95-36.73-34.38-34.97c-15.4,1.76-26.66,20.08-25.64,41.71c0.06,1.27-0.62,2.47-1.76,3.06     c-1.13,0.59-2.5,0.47-3.51-0.31c-7.62-5.85-15.99-7.91-23.53-5.8l0,0c-6.08,1.7-11.17,5.95-14.71,12.29     c-5.49,9.84-6.52,23.56-2.74,36.7c0.87,3.02,2.03,6.06,3.45,9.05c0,0.01,0.01,0.02,0.01,0.03c0.02,0.03,0.03,0.06,0.05,0.1     c2.02,4.21,4.51,8.06,7.39,11.43c0.11,0.13,0.21,0.27,0.31,0.42c7.71,12.59,19.36,33.35,31.07,60.7c0.04,0.1,0.08,0.2,0.11,0.3     c1.48,4.65,3.33,9.16,5.51,13.39c0.05,0.1,0.09,0.2,0.14,0.3c2.51,6.37,5.4,10.82,8.61,13.24c0.19,0.15,0.37,0.31,0.53,0.5     c11.07,13.1,25.37,19.71,39.24,18.13c14.12-1.61,26.7-11.55,34.53-27.27c0.08-0.17,0.18-0.33,0.29-0.48     c1.95-2.65,3.43-6.53,4.4-11.53c0.02-0.1,0.04-0.19,0.07-0.29c1.77-6.11,2.86-12.59,3.23-19.25c0.01-0.14,0.02-0.28,0.05-0.41     c5.03-27.27,11.24-48.7,15.57-61.88c0.07-0.21,0.16-0.42,0.28-0.61c4.07-7.06,6.47-15.47,6.94-24.3     c0.72-13.65-3.36-26.79-10.93-35.14c-4.88-5.38-10.79-8.38-17.09-8.67c-1.16-0.05-2.32-0.01-3.47,0.12     C361.26,134.62,354.88,138.42,349.67,144.8z"></path>
		</g>
	</g>
</g>
</svg>
