<svg xmlns="http://www.w3.org/2000/svg" xmlns:xlink="http://www.w3.org/1999/xlink" version="1.1" x="0px" y="0px" viewBox="0 0 90 112.5" enable-background="new 0 0 90 90" xml:space="preserve"><path d="M21.491,46.453c0.727-0.446,1.487-0.856,2.337-1c0.582-0.098,1.242-0.074,1.802,0.126c0,0-1.06,1.715-1.474,2.66  c-0.223,0.507-0.769,0.729-1.121,1.123c-0.351,0.39-0.395,0.894-0.029,1.286c0.437,0.468,1.178,0.481,1.729,0.255  c0.591-0.243,0.885-0.792,0.895-1.421c0.114-0.236,0.228-0.474,0.349-0.707c0.491-0.943,1.132-1.975,2.221-2.277  c0.643-0.18,1.304-0.091,1.941,0.063c1.214,0.295,2.738,0.631,3.969,1.031c-1.062-1.332-2.137-2.654-3.21-3.976  c-0.799-0.984-1.831-1.927-2.975-2.534c-0.124-0.079-0.423-0.241-0.78-0.431c-0.2,0.378-0.861,1.479-1.908,1.735  c-0.312,0.076-0.83,0.009-1.194,0.03c-0.433,0.025-0.864,0.071-1.29,0.151c-1.513,0.284-2.837,1.069-4.42,1.07  c-0.894,0.001-1.762-0.136-2.596-0.46c-0.706-0.274-1.76-0.784-2.318,0.056c-0.357,0.539-0.234,1.383,0.402,1.609  c0.496,0.177,1.316,0.035,1.826,0.011c0.879-0.041,2.66,0.542,2.66,0.542c1.402-0.753,3.252-1.434,3.252-1.434  c-1.197,0.748-3.681,2.723-3.681,2.723c-0.125,0.085-0.249,0.174-0.374,0.26c-0.57,0.392-2.378,1.55-2.754,1.678  c-0.341,0.116-0.717,0.204-0.978,0.472c-0.36,0.371-0.213,0.883,0.168,1.174c0.98,0.749,2.586,0.406,2.92-0.849  c0.052-0.194,1.729-1.387,2.354-1.707C19.997,47.313,20.744,46.913,21.491,46.453z M77.402,37.765  c-0.075-0.869-0.46-1.868-1.233-2.338c-1.349-0.821-2.885-0.374-3.951,0.669c-5.059,4.945-6.277,14.443-6.277,14.443  c0.025-0.174,0.427-8.562,5.302-14.108l-0.472-0.429c0.39-2.988-2.67-2.255-2.671-2.255c-0.343-0.267-0.688-0.531-1.038-0.789  c-0.754-0.559-4.28-3.021-7.52-5.073c-1.811-0.682-5.651-1.765-12.14-1.959c0,0,4.819-0.824,10.021,0.657  c-0.981-0.581-1.855-1.06-2.508-1.35c-2.374-1.053-4.638-1.188-7.186-1.354c-1.646-0.107-3.291-0.268-4.932-0.43  c0.743,0.4,1.772,1.143,1.772,1.143c-1.601-0.886-5.887-2.372-5.887-2.372c-2.372-0.972-8.113-2.271-8.113-2.271  c-1.316-0.304-1.976-1.593-2.858-2.476c-1.128-1.129-2.846-1.47-4.344-0.935c-1.301,0.465-1.898,1.648-2.687,2.673  c-0.312,0.405-0.799,0.608-1.279,0.741c-1.643,0.458-3.682-0.243-5.095,0.904c-0.675,0.549-1.044,1.349-1.438,2.103  c-1.065,2.043,1.079,3.588,2.612,4.487c1.026,0.602,2.098,1.005,3.178,1.485c0,0,6.254,2.492,9.813,4.907  c0,0-6.782-2.6-10.443-4.075c0,0-3.584-1.169-4.475-2.669c0.017,0.027-0.019,0.194-0.019,0.231c0.005,0.195,0.054,0.394,0.123,0.575  c0.248,0.651,0.818,1.081,1.396,1.428c1.808,1.087,3.734,1.89,5.357,3.267c1.023,0.868,2.083,1.703,3.205,2.439  c0.603,0.396,1.225,0.771,1.887,1.059c0,0-2.746-0.788-4.627-2.491c0.082,0.074,0.144,0.413,0.189,0.518  c0.185,0.429,0.418,0.842,0.657,1.243c0.874,1.461,2.137,2.402,3.585,3.305c2.226,1.388,4.783,2.303,6.425,4.742  c0,0,2.676,3.363,3.937,4.925c0.669,0.748,1.346,1.446,1.963,1.979c0,0-1.456,2.575-3.079,10.078  c-0.027,0.137-0.072,0.27-0.108,0.405c-0.158,0.579-0.332,1.148-0.516,1.72c-0.203,0.633-0.521,1.092-1.215,1.236  c-0.757,0.157-1.7,0.031-2.297-0.447c-0.746-0.6-1.634-2.456-2.822-1.62c-0.365,0.257-0.522,0.802-0.365,1.225  c0.186,0.499,0.765,0.634,1.206,0.819c0.471,0.197,1.246,0.739,1.332,1.444c0.021,0.173-1.026,0.631-1.128,0.683  c-1.528,0.776-3.272,0.933-4.961,0.852c-1.221-0.059-2.431-0.233-3.648-0.331c-0.785-0.063-1.908-0.044-2.021,0.986  c-0.082,0.743,0.631,1.148,1.255,1.229c0.731,0.094,1.558-0.053,2.108-0.577c0.016-0.015,1.723,0.493,5.138,0.383  c1.014-0.05,2.333-0.202,3.323-0.624c0.139-0.062,0.276-0.129,0.41-0.201c0,0-0.643,1.107-1.137,1.904c0,0-0.852,1.017-1.896,1.676  c0,0-2.39,0.659-1.813,1.841c0,0,0.33,0.742,1.402,0.715c0,0,0.961,0.082,1.566-0.989c0.451-0.337,0.882-0.707,1.292-1.092  c0.791-0.743,1.431-1.549,2.311-2.199c1.769-1.307,4.084-0.978,5.896-2.237c0.99-0.688,1.73-1.541,2.146-2.679  c0.118-0.323,0.201-0.657,0.282-0.991c0.443-1.821,0.857-3.661,1.162-5.511c0.414-2.511,0.863-5.059,0.636-7.594  c-0.515-5.894-3.509-9.542-3.509-9.683c0,0,3.452,2.677,4.355,10.034c0,0,9.137,4.749,17.115-0.188  c0.489-9.543,8.356-11.437,8.356-11.437c-7.867,3.504-7.298,12.155-7.298,12.162c0.044,0.665,0.074,1.342,0.275,1.983  c0.313,0.999,0.943,2.417,1.958,2.863c1.893,0.832,4.106-0.203,5.516-1.485c0.428-0.389,0.829-0.822,1.194-1.271  c0.71-0.874,1.235-1.827,1.764-2.816c0,0,3.18-5.946,3.936-9.039c0,0-2.11,10.067-6.572,14.01c-2.42,2.305-4.733,2.144-5.496,2.007  c-0.903,0.304-1.976,0.658-1.571,1.619c0.216,0.511,0.696,0.678,1.211,0.585c0.52-0.094,0.889-0.48,1.261-0.821  c0.44-0.405,0.898-0.674,1.506-0.74c0.06-0.006,0.121,0.935,0.121,0.98c0.007,0.812-0.164,1.667-0.497,2.406  c-0.156,0.35-0.349,0.688-0.586,0.988c-0.211,0.267-0.499,0.482-0.641,0.799c-0.329,0.732,0.295,1.259,0.965,1.366  c0.224,0.036,0.44,0.04,0.639-0.009c0.445-1.266,0.426-2.6,0.536-3.949c0.065-0.797,0.138-1.596,0.281-2.382  c0.049-0.271,0.146-0.549,0.176-0.822c0,0.124-0.025,0.253-0.036,0.375c-0.062,0.663-0.115,1.327-0.149,1.992  c-0.043,0.855-0.017,1.718-0.074,2.572c-0.039,0.588-0.077,1.176-0.135,1.762c0,0,0.176,1.351,0,2.025  c-0.161,0.623-0.131,1.374,0.458,1.754c0.588,0.38,1.342,0.327,1.845-0.158c0.602-0.581,0.461-1.504,0.199-2.221  c0,0-0.575-1.525-0.2-3.001c0,0,0.866-4.418,0.427-6.004c0,0,0.573,1.15,0.498,2.727c0,0,1.038,0.723,2.146,2.019  c0.183,0.213,0.179,0.521,0.317,0.759c0.424,0.724,1.605,0.796,2.012,0.019c0,0,0.451-0.984-0.77-1.698c0,0-2.837-2.104-2.574-5.053  c0.883-1.18,1.755-2.387,2.517-3.648c1.095-1.813,2.007-3.831,2.511-5.89c0.371-1.513,0.596-3.074,0.764-4.623  c0.031-0.29,0.062-0.581,0.05-0.872C77.197,39.581,77.481,38.66,77.402,37.765z M17.204,23.662  c-0.025,0.003-0.052,0.004-0.079,0.006c-0.219,0.008-0.476-0.042-0.615-0.032c-0.003,0-0.006,0-0.009,0  c-0.004,0-0.007,0.001-0.011,0.001c-0.096,0.009-0.191,0.022-0.286,0.041c-0.002,0-0.004,0.001-0.007,0.001  c-0.094,0.018-0.188,0.042-0.28,0.069c-0.003,0.001-0.006,0.001-0.009,0.002c-0.042,0.013-0.203,0.042-0.229,0.083  c0.031-0.05,0.07-0.097,0.108-0.141c0.194-0.229,0.446-0.411,0.729-0.512c0.193-0.069,0.415-0.129,0.621-0.113  c0.031,0.002,0.064,0.009,0.098,0.02C17.587,23.199,17.584,23.617,17.204,23.662z M29.482,27.714  c-0.178,0.646-0.572,1.181-1.098,1.569c-0.858,0.633-2.069,0.87-3.276,0.537c-1.946-0.538-3.143-2.352-2.673-4.052  c0.154-0.557,0.47-1.031,0.891-1.4c0.864-0.757,2.176-1.066,3.483-0.705C28.756,24.2,29.952,26.014,29.482,27.714z M39.939,24.44  c-3.625-0.891-8.069-1.583-10.355-2.679c1.743,0.46,3.668,0.676,5.44,1.008c2.168,0.406,4.158,0.954,6.229,1.748  c0.554,0.212,1.134,0.457,1.602,0.745C41.955,24.951,40.781,24.647,39.939,24.44z M26.202,25.863  c-1.249-0.345-2.504,0.253-2.504,0.253s0.77,1.158,2.019,1.503c1.25,0.345,2.504-0.253,2.504-0.253S27.451,26.208,26.202,25.863z"/><text x="0" y="105" fill="#000000" font-size="5px" font-weight="bold" font-family="'Helvetica Neue', Helvetica, Arial-Unicode, Arial, Sans-serif">Created by julian roman</text><text x="0" y="110" fill="#000000" font-size="5px" font-weight="bold" font-family="'Helvetica Neue', Helvetica, Arial-Unicode, Arial, Sans-serif">from the Noun Project</text></svg>